# This file uses centimeters as units for non-parametric coordinates.

mtllib Cape.mtl
g default
v 11.420666 162.491190 -6.848175
v 15.489513 162.491190 -6.848175
v 11.420666 163.318739 -6.520202
v 15.489513 163.318739 -6.520202
v 11.420666 163.240741 -11.183173
v 15.489513 163.240741 -11.183173
v 11.420666 162.408725 -10.866699
v 15.489513 162.408725 -10.866699
v 11.420666 159.895124 -2.477670
v 15.489513 159.895124 -2.477670
v 15.489513 160.580367 -1.909478
v 11.420666 160.580368 -1.909478
v 11.420666 161.094705 -14.522824
v 15.489513 161.094705 -14.522824
v 15.489513 160.417109 -13.945528
v 11.420666 160.417109 -13.945528
v 11.420666 156.497152 -17.244618
v 15.489513 156.497152 -17.244618
v 15.489513 155.658578 -16.945942
v 11.420666 155.658578 -16.945942
v 11.420666 155.255852 0.792963
v 15.489513 155.255852 0.792962
v 15.489513 156.102240 1.068716
v 11.420666 156.102239 1.068715
v 23.780521 164.536085 -12.760507
v 23.780521 164.674752 -6.003224
v 23.780521 165.935148 -13.292668
v 23.780521 166.066305 -5.451726
v 23.780521 161.461638 2.301365
v 23.780521 160.309372 1.345931
v 23.780521 161.187112 -17.937668
v 23.780521 162.326511 -18.908410
v 23.780521 153.185506 -22.982958
v 23.780521 154.595584 -23.485202
v 23.780521 153.931510 7.309294
v 23.780521 152.508286 6.845612
v 30.221346 164.536085 -12.760507
v 30.221346 164.674752 -6.003224
v 30.221346 165.935148 -13.292668
v 30.221346 166.066305 -5.451726
v 30.221346 161.461638 2.301365
v 30.221346 160.309372 1.345930
v 30.221346 161.187112 -17.937668
v 30.221346 162.326511 -18.908410
v 30.221346 153.185506 -22.982958
v 30.221346 154.595584 -23.485202
v 30.221346 153.931510 7.309294
v 30.221346 152.508284 6.845612
v 37.349717 164.536085 -12.760507
v 37.349717 164.674752 -6.003224
v 37.349717 165.935148 -13.292668
v 37.349717 166.066305 -5.451726
v 37.349717 161.461638 2.301365
v 37.349717 160.309372 1.345931
v 37.349717 161.187112 -17.937668
v 37.349717 162.326511 -18.908410
v 37.349717 153.185506 -22.982958
v 37.349717 154.595584 -23.485202
v 37.349717 153.931511 7.309294
v 37.349717 152.508283 6.845610
v 46.115829 164.536085 -12.760507
v 46.115829 164.674752 -6.003224
v 46.115829 165.935148 -13.292668
v 46.115829 166.066305 -5.451726
v 46.115829 161.461638 2.301365
v 46.115829 160.309372 1.345930
v 46.115829 161.187112 -17.937668
v 46.115829 162.326511 -18.908410
v 46.115829 153.185506 -22.982958
v 46.115829 154.595584 -23.485202
v 46.115829 153.931508 7.309294
v 46.115829 152.508286 6.845612
v 54.805339 164.536085 -12.760507
v 54.805339 164.674752 -6.003224
v 54.805339 165.935148 -13.292668
v 54.805339 166.066305 -5.451726
v 54.805339 161.461638 2.301365
v 54.805339 160.309372 1.345930
v 54.805339 161.187112 -17.937668
v 54.805339 162.326511 -18.908410
v 54.805339 153.185506 -22.982958
v 54.805339 154.595584 -23.485202
v 54.805339 153.931508 7.309294
v 54.805339 152.508285 6.845612
v 62.753487 164.536085 -12.760507
v 62.753487 164.674752 -6.003224
v 62.753487 165.935148 -13.292668
v 62.753487 166.066305 -5.451726
v 62.753487 161.461638 2.301365
v 62.753490 160.309372 1.345931
v 62.753487 161.187112 -17.937668
v 62.753487 162.326511 -18.908410
v 62.753487 153.185506 -22.982958
v 62.753487 154.595584 -23.485202
v 62.753487 153.931510 7.309294
v 62.753484 152.508285 6.845612
vt 0.375000 0.000000
vt 0.625000 0.000000
vt 0.375000 0.250000
vt 0.625000 0.250000
vt 0.375000 0.500000
vt 0.625000 0.500000
vt 0.375000 0.750000
vt 0.625000 0.750000
vt 0.375000 1.000000
vt 0.625000 1.000000
vt 0.875000 0.000000
vt 0.875000 0.250000
vt 0.125000 0.000000
vt 0.125000 0.250000
vt 0.375000 0.000000
vt 0.625000 0.000000
vt 0.625000 0.250000
vt 0.375000 0.250000
vt 0.375000 0.500000
vt 0.625000 0.500000
vt 0.625000 0.750000
vt 0.375000 0.750000
vt 0.375000 0.500000
vt 0.625000 0.500000
vt 0.625000 0.750000
vt 0.375000 0.750000
vt 0.375000 0.000000
vt 0.625000 0.000000
vt 0.625000 0.250000
vt 0.375000 0.250000
vt 0.625000 0.000000
vt 0.875000 0.000000
vt 0.875000 0.250000
vt 0.625000 0.250000
vt 0.625000 0.250000
vt 0.625000 0.000000
vt 0.625000 0.750000
vt 0.625000 0.750000
vt 0.625000 0.500000
vt 0.625000 0.500000
vt 0.625000 0.750000
vt 0.625000 0.500000
vt 0.625000 0.250000
vt 0.625000 0.000000
vt 0.625000 0.000000
vt 0.875000 0.000000
vt 0.875000 0.250000
vt 0.625000 0.250000
vt 0.625000 0.250000
vt 0.625000 0.000000
vt 0.625000 0.750000
vt 0.625000 0.750000
vt 0.625000 0.500000
vt 0.625000 0.500000
vt 0.625000 0.750000
vt 0.625000 0.500000
vt 0.625000 0.250000
vt 0.625000 0.000000
vt 0.625000 0.000000
vt 0.875000 0.000000
vt 0.875000 0.250000
vt 0.625000 0.250000
vt 0.625000 0.250000
vt 0.625000 0.000000
vt 0.625000 0.750000
vt 0.625000 0.750000
vt 0.625000 0.500000
vt 0.625000 0.500000
vt 0.625000 0.750000
vt 0.625000 0.500000
vt 0.625000 0.250000
vt 0.625000 0.000000
vt 0.625000 0.000000
vt 0.875000 0.000000
vt 0.875000 0.250000
vt 0.625000 0.250000
vt 0.625000 0.250000
vt 0.625000 0.000000
vt 0.625000 0.750000
vt 0.625000 0.750000
vt 0.625000 0.500000
vt 0.625000 0.500000
vt 0.625000 0.750000
vt 0.625000 0.500000
vt 0.625000 0.250000
vt 0.625000 0.000000
vt 0.625000 0.000000
vt 0.875000 0.000000
vt 0.875000 0.250000
vt 0.625000 0.250000
vt 0.625000 0.250000
vt 0.625000 0.000000
vt 0.625000 0.750000
vt 0.625000 0.750000
vt 0.625000 0.500000
vt 0.625000 0.500000
vt 0.625000 0.750000
vt 0.625000 0.500000
vt 0.625000 0.250000
vt 0.625000 0.000000
vt 0.625000 0.000000
vt 0.875000 0.000000
vt 0.875000 0.250000
vt 0.625000 0.250000
vt 0.625000 0.250000
vt 0.625000 0.000000
vt 0.625000 0.750000
vt 0.625000 0.750000
vt 0.625000 0.500000
vt 0.625000 0.500000
vt 0.625000 0.750000
vt 0.625000 0.500000
vt 0.625000 0.250000
vt 0.625000 0.000000
vn -0.000000 -0.309774 0.950810
vn -0.000000 -0.309774 0.950810
vn -0.000000 -0.309774 0.950810
vn -0.000000 -0.309774 0.950810
vn 0.000000 0.999860 -0.016725
vn 0.000000 0.999860 -0.016725
vn 0.000000 0.999860 -0.016725
vn 0.000000 0.999860 -0.016725
vn 0.000000 -0.335525 -0.942031
vn 0.000000 -0.335525 -0.942031
vn 0.000000 -0.335525 -0.942031
vn 0.000000 -0.335525 -0.942031
vn 0.000000 -0.999790 0.020517
vn 0.000000 -0.999790 0.020517
vn 0.000000 -0.999790 0.020517
vn 0.000000 -0.999790 0.020517
vn 1.000000 0.000003 0.000000
vn 1.000000 0.000003 0.000000
vn 1.000000 0.000003 0.000000
vn 1.000000 0.000003 0.000000
vn -1.000000 -0.000000 0.000000
vn -1.000000 -0.000000 0.000000
vn -1.000000 -0.000000 0.000000
vn -1.000000 -0.000000 0.000000
vn 0.000000 -0.859762 -0.510696
vn 0.000000 -0.859762 -0.510696
vn 0.000000 -0.859762 -0.510696
vn 0.000000 -0.859762 -0.510696
vn 1.000000 0.000000 0.000000
vn 1.000000 0.000000 0.000000
vn 1.000000 0.000000 0.000000
vn 1.000000 0.000000 0.000000
vn 0.000000 0.859793 0.510643
vn 0.000000 0.859793 0.510643
vn 0.000000 0.859793 0.510643
vn 0.000000 0.859793 0.510643
vn -1.000000 0.000000 0.000000
vn -1.000000 0.000000 0.000000
vn -1.000000 0.000000 0.000000
vn -1.000000 0.000000 0.000000
vn 0.000000 0.841280 -0.540600
vn 0.000000 0.841280 -0.540600
vn 0.000000 0.841280 -0.540600
vn 0.000000 0.841280 -0.540600
vn 1.000000 0.000002 0.000000
vn 1.000000 0.000002 0.000000
vn 1.000000 0.000002 0.000000
vn 1.000000 0.000002 0.000000
vn 0.000000 -0.839641 0.543142
vn 0.000000 -0.839641 0.543142
vn 0.000000 -0.839641 0.543142
vn 0.000000 -0.839641 0.543142
vn -1.000000 0.000000 0.000000
vn -1.000000 0.000000 0.000000
vn -1.000000 0.000000 0.000000
vn -1.000000 0.000000 0.000000
vn 0.000000 0.509431 -0.860512
vn 0.000000 0.509431 -0.860512
vn 0.000000 0.509431 -0.860512
vn 0.000000 0.509431 -0.860512
vn 1.000000 -0.000002 0.000000
vn 1.000000 -0.000002 0.000000
vn 1.000000 -0.000002 0.000000
vn 1.000000 -0.000002 0.000000
vn 0.000000 -0.533361 0.845888
vn 0.000000 -0.533361 0.845888
vn 0.000000 -0.533361 0.845888
vn 0.000000 -0.533361 0.845888
vn -1.000000 0.000000 0.000000
vn -1.000000 0.000000 0.000000
vn -1.000000 0.000000 0.000000
vn -1.000000 0.000000 0.000000
vn -0.000000 -0.576195 -0.817312
vn -0.000000 -0.576195 -0.817312
vn -0.000000 -0.576195 -0.817312
vn -0.000000 -0.576195 -0.817312
vn 1.000000 0.000000 0.000000
vn 1.000000 0.000000 0.000000
vn 1.000000 0.000000 0.000000
vn 1.000000 0.000000 0.000000
vn -0.000000 0.553770 0.832670
vn -0.000000 0.553770 0.832670
vn -0.000000 0.553770 0.832670
vn -0.000000 0.553770 0.832670
vn -1.000000 0.000000 0.000000
vn -1.000000 0.000000 0.000000
vn -1.000000 0.000000 0.000000
vn -1.000000 0.000000 0.000000
vn 0.252738 -0.967331 0.019851
vn 0.252738 -0.967331 0.019851
vn 0.252738 -0.967331 0.019851
vn 0.252738 -0.967331 0.019851
vn -0.312683 0.949725 -0.015886
vn -0.312683 0.949725 -0.015886
vn -0.312683 0.949725 -0.015886
vn -0.312683 0.949725 -0.015886
vn -0.330968 0.811337 0.481864
vn -0.330968 0.811337 0.481864
vn -0.330968 0.811337 0.481864
vn -0.330968 0.811337 0.481864
vn 0.268269 -0.828246 -0.491976
vn 0.268269 -0.828246 -0.491976
vn 0.268269 -0.828246 -0.491976
vn 0.268269 -0.828246 -0.491976
vn 0.321481 -0.795069 0.514310
vn 0.321481 -0.795069 0.514310
vn 0.321481 -0.795069 0.514310
vn 0.321481 -0.795069 0.514310
vn -0.380101 0.778137 -0.500026
vn -0.380101 0.778137 -0.500026
vn -0.380101 0.778137 -0.500026
vn -0.380101 0.778137 -0.500026
vn 0.415525 -0.485136 0.769404
vn 0.415525 -0.485136 0.769404
vn 0.415525 -0.485136 0.769404
vn 0.415525 -0.485136 0.769404
vn -0.617967 -0.263795 -0.740628
vn -0.617967 -0.263795 -0.740628
vn -0.617967 -0.263795 -0.740628
vn -0.617967 -0.263795 -0.740628
vn -0.468887 0.449960 -0.760053
vn -0.468887 0.449960 -0.760054
vn -0.468887 0.449960 -0.760053
vn -0.468887 0.449960 -0.760053
vn -0.434018 0.498893 0.750156
vn -0.434018 0.498893 0.750156
vn -0.434018 0.498893 0.750156
vn -0.434018 0.498893 0.750156
vn -0.623155 -0.242273 0.743628
vn -0.623155 -0.242273 0.743628
vn -0.623155 -0.242273 0.743628
vn -0.623155 -0.242273 0.743628
vn 0.375949 -0.533926 -0.757354
vn 0.375949 -0.533926 -0.757354
vn 0.375949 -0.533926 -0.757354
vn 0.375949 -0.533926 -0.757354
vn 0.000000 -0.999789 0.020517
vn 0.000000 -0.999789 0.020517
vn 0.000000 -0.999789 0.020517
vn 0.000000 -0.999789 0.020517
vn 0.000000 0.999860 -0.016725
vn 0.000000 0.999860 -0.016725
vn 0.000000 0.999860 -0.016725
vn 0.000000 0.999860 -0.016725
vn 0.000000 0.859793 0.510643
vn 0.000000 0.859793 0.510643
vn 0.000000 0.859793 0.510643
vn 0.000000 0.859793 0.510643
vn 0.000000 -0.859761 -0.510696
vn 0.000000 -0.859761 -0.510696
vn 0.000000 -0.859761 -0.510696
vn 0.000000 -0.859761 -0.510696
vn 0.000000 -0.839641 0.543142
vn 0.000000 -0.839641 0.543142
vn 0.000000 -0.839641 0.543142
vn 0.000000 -0.839641 0.543142
vn 0.000000 0.841280 -0.540600
vn 0.000000 0.841280 -0.540600
vn 0.000000 0.841280 -0.540600
vn 0.000000 0.841280 -0.540600
vn 0.000000 -0.533361 0.845887
vn 0.000000 -0.533361 0.845887
vn 0.000000 -0.533361 0.845887
vn 0.000000 -0.533361 0.845887
vn 0.000000 -0.335534 -0.942028
vn 0.000000 -0.335534 -0.942028
vn 0.000000 -0.335534 -0.942028
vn 0.000000 -0.335534 -0.942028
vn 0.000000 0.509432 -0.860511
vn 0.000000 0.509432 -0.860511
vn 0.000000 0.509432 -0.860511
vn 0.000000 0.509432 -0.860511
vn 0.000000 0.553769 0.832670
vn 0.000000 0.553769 0.832670
vn 0.000000 0.553769 0.832670
vn 0.000000 0.553769 0.832670
vn 0.000000 -0.309771 0.950811
vn 0.000000 -0.309771 0.950811
vn 0.000000 -0.309771 0.950811
vn 0.000000 -0.309771 0.950811
vn -0.000000 -0.576196 -0.817312
vn -0.000000 -0.576196 -0.817312
vn -0.000000 -0.576196 -0.817312
vn -0.000000 -0.576196 -0.817312
vn 0.000000 -0.999789 0.020517
vn 0.000000 -0.999789 0.020517
vn 0.000000 -0.999789 0.020517
vn 0.000000 -0.999789 0.020517
vn 0.000000 0.999860 -0.016725
vn 0.000000 0.999860 -0.016725
vn 0.000000 0.999860 -0.016725
vn 0.000000 0.999860 -0.016725
vn 0.000000 0.859793 0.510643
vn 0.000000 0.859793 0.510643
vn 0.000000 0.859793 0.510643
vn 0.000000 0.859793 0.510643
vn 0.000000 -0.859761 -0.510696
vn 0.000000 -0.859761 -0.510696
vn 0.000000 -0.859761 -0.510696
vn 0.000000 -0.859761 -0.510696
vn 0.000000 -0.839641 0.543142
vn 0.000000 -0.839641 0.543142
vn 0.000000 -0.839641 0.543142
vn 0.000000 -0.839641 0.543142
vn 0.000000 0.841280 -0.540600
vn 0.000000 0.841280 -0.540600
vn 0.000000 0.841280 -0.540600
vn 0.000000 0.841280 -0.540600
vn 0.000000 -0.533361 0.845887
vn 0.000000 -0.533361 0.845887
vn 0.000000 -0.533361 0.845887
vn 0.000000 -0.533361 0.845887
vn 0.000000 -0.335534 -0.942028
vn 0.000000 -0.335534 -0.942028
vn 0.000000 -0.335534 -0.942028
vn 0.000000 -0.335534 -0.942028
vn 0.000000 0.509432 -0.860511
vn 0.000000 0.509432 -0.860511
vn 0.000000 0.509432 -0.860511
vn 0.000000 0.509432 -0.860511
vn 0.000000 0.553769 0.832670
vn 0.000000 0.553769 0.832670
vn 0.000000 0.553769 0.832670
vn 0.000000 0.553769 0.832670
vn -0.000000 -0.309771 0.950811
vn -0.000000 -0.309771 0.950811
vn -0.000000 -0.309771 0.950811
vn -0.000000 -0.309771 0.950811
vn 0.000000 -0.576196 -0.817312
vn 0.000000 -0.576196 -0.817312
vn 0.000000 -0.576196 -0.817312
vn 0.000000 -0.576196 -0.817312
vn 0.000000 -0.999789 0.020517
vn 0.000000 -0.999789 0.020517
vn 0.000000 -0.999789 0.020517
vn 0.000000 -0.999789 0.020517
vn 0.000000 0.999860 -0.016725
vn 0.000000 0.999860 -0.016725
vn 0.000000 0.999860 -0.016725
vn 0.000000 0.999860 -0.016725
vn 0.000000 0.859793 0.510643
vn 0.000000 0.859793 0.510643
vn 0.000000 0.859793 0.510643
vn 0.000000 0.859793 0.510643
vn -0.000000 -0.859761 -0.510696
vn -0.000000 -0.859761 -0.510696
vn -0.000000 -0.859761 -0.510696
vn -0.000000 -0.859761 -0.510696
vn 0.000000 -0.839641 0.543142
vn 0.000000 -0.839641 0.543142
vn 0.000000 -0.839641 0.543142
vn 0.000000 -0.839641 0.543142
vn 0.000000 0.841279 -0.540600
vn 0.000000 0.841279 -0.540600
vn 0.000000 0.841279 -0.540600
vn 0.000000 0.841279 -0.540600
vn 0.000000 -0.533361 0.845887
vn 0.000000 -0.533361 0.845887
vn 0.000000 -0.533361 0.845887
vn 0.000000 -0.533361 0.845887
vn 0.000000 -0.335534 -0.942028
vn 0.000000 -0.335534 -0.942028
vn 0.000000 -0.335534 -0.942028
vn 0.000000 -0.335534 -0.942028
vn 0.000000 0.509432 -0.860511
vn 0.000000 0.509432 -0.860511
vn 0.000000 0.509432 -0.860511
vn 0.000000 0.509432 -0.860511
vn -0.000000 0.553769 0.832670
vn -0.000000 0.553769 0.832670
vn -0.000000 0.553769 0.832670
vn -0.000000 0.553769 0.832670
vn 0.000000 -0.309772 0.950811
vn 0.000000 -0.309772 0.950811
vn 0.000000 -0.309772 0.950811
vn 0.000000 -0.309772 0.950811
vn -0.000000 -0.576196 -0.817312
vn -0.000000 -0.576196 -0.817312
vn -0.000000 -0.576196 -0.817312
vn -0.000000 -0.576196 -0.817312
vn 0.000000 -0.999789 0.020517
vn 0.000000 -0.999789 0.020517
vn 0.000000 -0.999789 0.020517
vn 0.000000 -0.999789 0.020517
vn 0.000000 0.999860 -0.016725
vn 0.000000 0.999860 -0.016725
vn 0.000000 0.999860 -0.016725
vn 0.000000 0.999860 -0.016725
vn 0.000000 0.859793 0.510643
vn 0.000000 0.859793 0.510643
vn 0.000000 0.859793 0.510643
vn 0.000000 0.859793 0.510643
vn 0.000000 -0.859761 -0.510696
vn 0.000000 -0.859761 -0.510696
vn 0.000000 -0.859761 -0.510696
vn 0.000000 -0.859761 -0.510696
vn 0.000000 -0.839641 0.543142
vn 0.000000 -0.839641 0.543142
vn 0.000000 -0.839641 0.543142
vn 0.000000 -0.839641 0.543142
vn 0.000000 0.841280 -0.540600
vn 0.000000 0.841280 -0.540600
vn 0.000000 0.841280 -0.540600
vn 0.000000 0.841280 -0.540600
vn 0.000000 -0.533361 0.845887
vn 0.000000 -0.533361 0.845887
vn 0.000000 -0.533361 0.845887
vn 0.000000 -0.533361 0.845887
vn 0.000000 -0.335534 -0.942028
vn 0.000000 -0.335534 -0.942028
vn 0.000000 -0.335534 -0.942028
vn 0.000000 -0.335534 -0.942028
vn 0.000000 0.509432 -0.860511
vn 0.000000 0.509432 -0.860511
vn 0.000000 0.509432 -0.860511
vn 0.000000 0.509432 -0.860511
vn 0.000000 0.553769 0.832670
vn 0.000000 0.553769 0.832670
vn 0.000000 0.553769 0.832670
vn 0.000000 0.553769 0.832670
vn 0.000000 -0.309771 0.950811
vn 0.000000 -0.309771 0.950811
vn 0.000000 -0.309771 0.950811
vn 0.000000 -0.309771 0.950811
vn -0.000000 -0.576196 -0.817312
vn -0.000000 -0.576196 -0.817312
vn -0.000000 -0.576196 -0.817312
vn -0.000000 -0.576196 -0.817312
vn 0.000000 -0.999790 0.020517
vn 0.000000 -0.999790 0.020517
vn 0.000000 -0.999790 0.020517
vn 0.000000 -0.999790 0.020517
vn 0.000000 0.999860 -0.016725
vn 0.000000 0.999860 -0.016725
vn 0.000000 0.999860 -0.016725
vn 0.000000 0.999860 -0.016725
vn -0.000000 0.859793 0.510643
vn -0.000000 0.859793 0.510643
vn -0.000000 0.859793 0.510643
vn -0.000000 0.859793 0.510643
vn 0.000000 -0.859761 -0.510696
vn 0.000000 -0.859761 -0.510696
vn 0.000000 -0.859761 -0.510696
vn 0.000000 -0.859761 -0.510696
vn 0.000000 -0.839641 0.543142
vn 0.000000 -0.839641 0.543142
vn 0.000000 -0.839641 0.543142
vn 0.000000 -0.839641 0.543142
vn 0.000000 0.841280 -0.540600
vn 0.000000 0.841280 -0.540600
vn 0.000000 0.841280 -0.540600
vn 0.000000 0.841280 -0.540600
vn 0.000000 -0.533361 0.845888
vn 0.000000 -0.533361 0.845888
vn 0.000000 -0.533361 0.845888
vn 0.000000 -0.533361 0.845888
vn 0.000000 -0.335534 -0.942028
vn 0.000000 -0.335534 -0.942028
vn 0.000000 -0.335534 -0.942028
vn 0.000000 -0.335534 -0.942028
vn 0.000000 0.509432 -0.860511
vn 0.000000 0.509432 -0.860511
vn 0.000000 0.509432 -0.860511
vn 0.000000 0.509432 -0.860511
vn 0.000000 0.553769 0.832670
vn 0.000000 0.553769 0.832670
vn 0.000000 0.553769 0.832670
vn 0.000000 0.553769 0.832670
vn -0.000000 -0.309771 0.950811
vn -0.000000 -0.309771 0.950811
vn -0.000000 -0.309771 0.950811
vn -0.000000 -0.309771 0.950811
vn 0.000000 -0.576196 -0.817312
vn 0.000000 -0.576196 -0.817312
vn 0.000000 -0.576196 -0.817312
vn 0.000000 -0.576196 -0.817312
s off
g pCube2
usemtl initialShadingGroup
f 21/27/1 22/28/2 23/29/3 24/30/4
f 3/3/5 4/4/6 6/6/7 5/5/8
f 17/23/9 18/24/10 19/25/11 20/26/12
f 7/7/13 8/8/14 2/10/15 1/9/16
f 86/101/17 85/102/18 87/103/19 88/104/20
f 7/13/21 1/1/22 3/3/23 5/14/24
f 1/1/25 2/2/26 10/16/27 9/15/28
f 86/101/29 88/104/30 89/105/31 90/106/32
f 4/4/33 3/3/34 12/18/35 11/17/36
f 3/3/37 1/1/38 9/15/39 12/18/40
f 5/5/41 6/6/42 14/20/43 13/19/44
f 87/110/45 85/107/46 91/108/47 92/109/48
f 8/8/49 7/7/50 16/22/51 15/21/52
f 7/7/53 5/5/54 13/19/55 16/22/56
f 13/19/57 14/20/58 18/24/59 17/23/60
f 92/109/61 91/108/62 93/111/63 94/112/64
f 15/21/65 16/22/66 20/26/67 19/25/68
f 16/22/69 13/19/70 17/23/71 20/26/72
f 9/15/73 10/16/74 22/28/75 21/27/76
f 90/106/77 89/105/78 95/113/79 96/114/80
f 11/17/81 12/18/82 24/30/83 23/29/84
f 12/18/85 9/15/86 21/27/87 24/30/88
f 2/2/89 8/11/90 25/32/91 26/31/92
f 6/12/93 4/4/94 28/34/95 27/33/96
f 4/4/97 11/17/98 29/35/99 28/34/100
f 10/16/101 2/2/102 26/31/103 30/36/104
f 8/8/105 15/21/106 31/38/107 25/37/108
f 14/20/109 6/6/110 27/40/111 32/39/112
f 15/21/113 19/25/114 33/41/115 31/38/116
f 19/25/117 18/24/118 34/42/119 33/41/120
f 18/24/121 14/20/122 32/39/123 34/42/124
f 11/17/125 23/29/126 35/43/127 29/35/128
f 23/29/129 22/28/130 36/44/131 35/43/132
f 22/28/133 10/16/134 30/36/135 36/44/136
f 26/31/137 25/32/138 37/46/139 38/45/140
f 27/33/141 28/34/142 40/48/143 39/47/144
f 28/34/145 29/35/146 41/49/147 40/48/148
f 30/36/149 26/31/150 38/45/151 42/50/152
f 25/37/153 31/38/154 43/52/155 37/51/156
f 32/39/157 27/40/158 39/54/159 44/53/160
f 31/38/161 33/41/162 45/55/163 43/52/164
f 33/41/165 34/42/166 46/56/167 45/55/168
f 34/42/169 32/39/170 44/53/171 46/56/172
f 29/35/173 35/43/174 47/57/175 41/49/176
f 35/43/177 36/44/178 48/58/179 47/57/180
f 36/44/181 30/36/182 42/50/183 48/58/184
f 38/45/185 37/46/186 49/60/187 50/59/188
f 39/47/189 40/48/190 52/62/191 51/61/192
f 40/48/193 41/49/194 53/63/195 52/62/196
f 42/50/197 38/45/198 50/59/199 54/64/200
f 37/51/201 43/52/202 55/66/203 49/65/204
f 44/53/205 39/54/206 51/68/207 56/67/208
f 43/52/209 45/55/210 57/69/211 55/66/212
f 45/55/213 46/56/214 58/70/215 57/69/216
f 46/56/217 44/53/218 56/67/219 58/70/220
f 41/49/221 47/57/222 59/71/223 53/63/224
f 47/57/225 48/58/226 60/72/227 59/71/228
f 48/58/229 42/50/230 54/64/231 60/72/232
f 50/59/233 49/60/234 61/74/235 62/73/236
f 51/61/237 52/62/238 64/76/239 63/75/240
f 52/62/241 53/63/242 65/77/243 64/76/244
f 54/64/245 50/59/246 62/73/247 66/78/248
f 49/65/249 55/66/250 67/80/251 61/79/252
f 56/67/253 51/68/254 63/82/255 68/81/256
f 55/66/257 57/69/258 69/83/259 67/80/260
f 57/69/261 58/70/262 70/84/263 69/83/264
f 58/70/265 56/67/266 68/81/267 70/84/268
f 53/63/269 59/71/270 71/85/271 65/77/272
f 59/71/273 60/72/274 72/86/275 71/85/276
f 60/72/277 54/64/278 66/78/279 72/86/280
f 62/73/281 61/74/282 73/88/283 74/87/284
f 63/75/285 64/76/286 76/90/287 75/89/288
f 64/76/289 65/77/290 77/91/291 76/90/292
f 66/78/293 62/73/294 74/87/295 78/92/296
f 61/79/297 67/80/298 79/94/299 73/93/300
f 68/81/301 63/82/302 75/96/303 80/95/304
f 67/80/305 69/83/306 81/97/307 79/94/308
f 69/83/309 70/84/310 82/98/311 81/97/312
f 70/84/313 68/81/314 80/95/315 82/98/316
f 65/77/317 71/85/318 83/99/319 77/91/320
f 71/85/321 72/86/322 84/100/323 83/99/324
f 72/86/325 66/78/326 78/92/327 84/100/328
f 74/87/329 73/88/330 85/102/331 86/101/332
f 75/89/333 76/90/334 88/104/335 87/103/336
f 76/90/337 77/91/338 89/105/339 88/104/340
f 78/92/341 74/87/342 86/101/343 90/106/344
f 73/93/345 79/94/346 91/108/347 85/107/348
f 80/95/349 75/96/350 87/110/351 92/109/352
f 79/94/353 81/97/354 93/111/355 91/108/356
f 81/97/357 82/98/358 94/112/359 93/111/360
f 82/98/361 80/95/362 92/109/363 94/112/364
f 77/91/365 83/99/366 95/113/367 89/105/368
f 83/99/369 84/100/370 96/114/371 95/113/372
f 84/100/373 78/92/374 90/106/375 96/114/376
